<svg width="121" height="122" viewBox="0 0 121 122" fill="none" xmlns="http://www.w3.org/2000/svg">
<path d="M70.5834 10.1667H30.2501C27.5758 10.1667 25.0111 11.2379 23.1201 13.1445C21.2291 15.0511 20.1667 17.637 20.1667 20.3334V101.667C20.1667 104.363 21.2291 106.949 23.1201 108.856C25.0111 110.762 27.5758 111.833 30.2501 111.833H90.7501C93.4243 111.833 95.9891 110.762 97.8801 108.856C99.7711 106.949 100.833 104.363 100.833 101.667V40.6667L70.5834 10.1667Z" stroke="black" stroke-width="5" stroke-linecap="round" stroke-linejoin="round"/>
<path d="M70.5833 10.1667V40.6667H100.833" stroke="black" stroke-width="5" stroke-linecap="round" stroke-linejoin="round"/>
<path d="M80.6666 66.0833H40.3333" stroke="black" stroke-width="5" stroke-linecap="round" stroke-linejoin="round"/>
<path d="M80.6666 86.4167H40.3333" stroke="black" stroke-width="5" stroke-linecap="round" stroke-linejoin="round"/>
<path d="M50.4166 45.75H45.3749H40.3333" stroke="black" stroke-width="5" stroke-linecap="round" stroke-linejoin="round"/>
</svg>
