<svg width="1426" height="1045" viewBox="0 0 1426 1045" fill="none" xmlns="http://www.w3.org/2000/svg">
<rect x="1" y="1044" width="173" height="177.125" transform="rotate(-90 1 1044)" stroke="white" stroke-opacity="0.02"/>
<rect x="1" y="348" width="173" height="177.125" transform="rotate(-90 1 348)" stroke="white" stroke-opacity="0.02"/>
<rect x="1" y="174" width="173" height="177.125" transform="rotate(-90 1 174)" stroke="white" stroke-opacity="0.02"/>
<rect x="1" y="870" width="173" height="177.125" transform="rotate(-90 1 870)" stroke="white" stroke-opacity="0.02"/>
<rect x="1" y="696" width="173" height="177.125" transform="rotate(-90 1 696)" stroke="white" stroke-opacity="0.02"/>
<rect x="1" y="522" width="173" height="177.125" transform="rotate(-90 1 522)" stroke="white" stroke-opacity="0.02"/>
<rect x="179.125" y="1044" width="173" height="177.125" transform="rotate(-90 179.125 1044)" stroke="white" stroke-opacity="0.02"/>
<rect x="179.125" y="348" width="173" height="177.125" transform="rotate(-90 179.125 348)" stroke="white" stroke-opacity="0.02"/>
<rect x="179.125" y="174" width="173" height="177.125" transform="rotate(-90 179.125 174)" stroke="white" stroke-opacity="0.02"/>
<rect x="179.125" y="870" width="173" height="177.125" transform="rotate(-90 179.125 870)" stroke="white" stroke-opacity="0.02"/>
<rect x="179.125" y="696" width="173" height="177.125" transform="rotate(-90 179.125 696)" stroke="white" stroke-opacity="0.02"/>
<rect x="179.125" y="522" width="173" height="177.125" transform="rotate(-90 179.125 522)" stroke="white" stroke-opacity="0.02"/>
<rect x="357.25" y="1044" width="173" height="177.125" transform="rotate(-90 357.25 1044)" stroke="white" stroke-opacity="0.02"/>
<rect x="357.25" y="348" width="173" height="177.125" transform="rotate(-90 357.25 348)" stroke="white" stroke-opacity="0.02"/>
<rect x="357.25" y="174" width="173" height="177.125" transform="rotate(-90 357.25 174)" stroke="white" stroke-opacity="0.02"/>
<rect x="357.25" y="870" width="173" height="177.125" transform="rotate(-90 357.25 870)" stroke="white" stroke-opacity="0.02"/>
<rect x="357.25" y="696" width="173" height="177.125" transform="rotate(-90 357.25 696)" stroke="white" stroke-opacity="0.02"/>
<rect x="357.25" y="522" width="173" height="177.125" transform="rotate(-90 357.25 522)" stroke="white" stroke-opacity="0.02"/>
<rect x="535.375" y="1044" width="173" height="177.125" transform="rotate(-90 535.375 1044)" stroke="white" stroke-opacity="0.02"/>
<rect x="535.375" y="348" width="173" height="177.125" transform="rotate(-90 535.375 348)" stroke="white" stroke-opacity="0.02"/>
<rect x="535.375" y="174" width="173" height="177.125" transform="rotate(-90 535.375 174)" stroke="white" stroke-opacity="0.02"/>
<rect x="535.375" y="870" width="173" height="177.125" transform="rotate(-90 535.375 870)" stroke="white" stroke-opacity="0.02"/>
<rect x="535.375" y="696" width="173" height="177.125" transform="rotate(-90 535.375 696)" stroke="white" stroke-opacity="0.02"/>
<rect x="535.375" y="522" width="173" height="177.125" transform="rotate(-90 535.375 522)" stroke="white" stroke-opacity="0.02"/>
<rect x="713.5" y="1044" width="173" height="177.125" transform="rotate(-90 713.5 1044)" stroke="white" stroke-opacity="0.02"/>
<rect x="713.5" y="348" width="173" height="177.125" transform="rotate(-90 713.5 348)" stroke="white" stroke-opacity="0.02"/>
<rect x="713.5" y="174" width="173" height="177.125" transform="rotate(-90 713.5 174)" stroke="white" stroke-opacity="0.02"/>
<rect x="713.5" y="870" width="173" height="177.125" transform="rotate(-90 713.5 870)" stroke="white" stroke-opacity="0.02"/>
<rect x="713.5" y="696" width="173" height="177.125" transform="rotate(-90 713.5 696)" stroke="white" stroke-opacity="0.02"/>
<rect x="713.5" y="522" width="173" height="177.125" transform="rotate(-90 713.5 522)" stroke="white" stroke-opacity="0.02"/>
<rect x="891.625" y="1044" width="173" height="177.125" transform="rotate(-90 891.625 1044)" stroke="white" stroke-opacity="0.02"/>
<rect x="891.625" y="348" width="173" height="177.125" transform="rotate(-90 891.625 348)" stroke="white" stroke-opacity="0.02"/>
<rect x="891.625" y="174" width="173" height="177.125" transform="rotate(-90 891.625 174)" stroke="white" stroke-opacity="0.02"/>
<rect x="891.625" y="870" width="173" height="177.125" transform="rotate(-90 891.625 870)" stroke="white" stroke-opacity="0.02"/>
<rect x="891.625" y="696" width="173" height="177.125" transform="rotate(-90 891.625 696)" stroke="white" stroke-opacity="0.02"/>
<rect x="891.625" y="522" width="173" height="177.125" transform="rotate(-90 891.625 522)" stroke="white" stroke-opacity="0.02"/>
<rect x="1069.75" y="1044" width="173" height="177.125" transform="rotate(-90 1069.75 1044)" stroke="white" stroke-opacity="0.02"/>
<rect x="1069.75" y="348" width="173" height="177.125" transform="rotate(-90 1069.75 348)" stroke="white" stroke-opacity="0.02"/>
<rect x="1069.75" y="174" width="173" height="177.125" transform="rotate(-90 1069.75 174)" stroke="white" stroke-opacity="0.02"/>
<rect x="1069.75" y="870" width="173" height="177.125" transform="rotate(-90 1069.75 870)" stroke="white" stroke-opacity="0.02"/>
<rect x="1069.75" y="696" width="173" height="177.125" transform="rotate(-90 1069.75 696)" stroke="white" stroke-opacity="0.02"/>
<rect x="1069.75" y="522" width="173" height="177.125" transform="rotate(-90 1069.75 522)" stroke="white" stroke-opacity="0.02"/>
<rect x="1247.88" y="1044" width="173" height="177.125" transform="rotate(-90 1247.88 1044)" stroke="white" stroke-opacity="0.02"/>
<rect x="1247.88" y="348" width="173" height="177.125" transform="rotate(-90 1247.88 348)" stroke="white" stroke-opacity="0.02"/>
<rect x="1247.88" y="174" width="173" height="177.125" transform="rotate(-90 1247.88 174)" stroke="white" stroke-opacity="0.02"/>
<rect x="1247.88" y="870" width="173" height="177.125" transform="rotate(-90 1247.88 870)" stroke="white" stroke-opacity="0.02"/>
<rect x="1247.88" y="696" width="173" height="177.125" transform="rotate(-90 1247.88 696)" stroke="white" stroke-opacity="0.02"/>
<rect x="1247.88" y="522" width="173" height="177.125" transform="rotate(-90 1247.88 522)" stroke="white" stroke-opacity="0.02"/>
</svg>
