<svg width="114" height="113" viewBox="0 0 114 113" fill="none" xmlns="http://www.w3.org/2000/svg">
<path d="M92.7909 21.2013C90.5857 18.9579 87.9674 17.1783 85.0856 15.9641C82.2038 14.7499 79.115 14.125 75.9957 14.125C72.8763 14.125 69.7875 14.7499 66.9057 15.9641C64.0239 17.1783 61.4057 18.9579 59.2004 21.2013L54.6238 25.8549L50.0473 21.2013C45.5929 16.6719 39.5515 14.1273 33.252 14.1273C26.9526 14.1273 20.9112 16.6719 16.4568 21.2013C12.0024 25.7306 9.5 31.8737 9.5 38.2792C9.5 44.6847 12.0024 50.8278 16.4568 55.3572L21.0334 60.0108L54.6238 94.1667L88.2143 60.0108L92.7909 55.3572C94.9971 53.1148 96.7473 50.4525 97.9413 47.5222C99.1354 44.5919 99.75 41.4511 99.75 38.2792C99.75 35.1073 99.1354 31.9665 97.9413 29.0362C96.7473 26.106 94.9971 23.4436 92.7909 21.2013Z" stroke="black" stroke-width="6" stroke-linecap="round" stroke-linejoin="round"/>
</svg>
