<svg width="98" height="108" viewBox="0 0 98 108" fill="none" xmlns="http://www.w3.org/2000/svg">
<path d="M95 74.4042V33.5958C94.9982 31.8067 94.525 30.0496 93.6279 28.5007C92.7308 26.9518 91.4413 25.6655 89.8889 24.771L54.1111 4.36682C52.5571 3.4714 50.7944 3 49 3C47.2056 3 45.4429 3.4714 43.8889 4.36682L8.11111 24.771C6.55867 25.6655 5.26923 26.9518 4.37214 28.5007C3.47504 30.0496 3.00184 31.8067 3 33.5958V74.4042C3.00184 76.1932 3.47504 77.9504 4.37214 79.4993C5.26923 81.0482 6.55867 82.3345 8.11111 83.229L43.8889 103.633C45.4429 104.529 47.2056 105 49 105C50.7944 105 52.5571 104.529 54.1111 103.633L89.8889 83.229C91.4413 82.3345 92.7308 81.0482 93.6279 79.4993C94.525 77.9504 94.9982 76.1932 95 74.4042Z" stroke="black" stroke-width="6" stroke-linecap="round" stroke-linejoin="round"/>
<ellipse cx="33" cy="42.5" rx="4" ry="4.5" fill="black"/>
<circle cx="63.5" cy="42.5" r="4.5" fill="black"/>
<path d="M32 55.9412V57.495C32 61.295 33.6291 64.9126 36.4745 67.4312L36.6662 67.6009C37.4504 68.295 38.3264 68.878 39.2695 69.3333V69.3333C40.266 69.8144 41.3271 70.1481 42.4196 70.324L43.6962 70.5294L45.1658 70.6799C47.2453 70.8929 49.3395 70.9213 51.4241 70.7647V70.7647V70.7647C53.4874 70.6097 55.4915 70.003 57.2943 68.9875L59.479 67.7569C59.5393 67.7229 59.597 67.6845 59.6516 67.6419V67.6419C63.0268 65.0095 65 60.9682 65 56.6878V55" stroke="black" stroke-width="5"/>
</svg>
