<svg width="114" height="114" viewBox="0 0 114 114" fill="none" xmlns="http://www.w3.org/2000/svg">
<g filter="url(#filter0_d)">
<path d="M95 14.125H19C13.7533 14.125 9.5 18.341 9.5 23.5417V70.625C9.5 75.8257 13.7533 80.0417 19 80.0417H95C100.247 80.0417 104.5 75.8257 104.5 70.625V23.5417C104.5 18.341 100.247 14.125 95 14.125Z" stroke="black" stroke-width="6" stroke-linecap="round" stroke-linejoin="round"/>
<path d="M37.4198 102.649H75.4198" stroke="black" stroke-width="5" stroke-linecap="round" stroke-linejoin="round"/>
<path d="M57 80.9043L38.2901 101.786" stroke="black" stroke-width="6" stroke-linecap="round" stroke-linejoin="round"/>
<path d="M58.3053 82.8091L74.8396 101.786" stroke="black" stroke-width="6" stroke-linecap="round" stroke-linejoin="round"/>
<g clip-path="url(#clip0)">
<path d="M38.1813 47.0114C38.1813 47.0114 44.708 34.0725 56.1297 34.0725C67.5515 34.0725 74.0782 47.0114 74.0782 47.0114C74.0782 47.0114 67.5515 59.9504 56.1297 59.9504C44.708 59.9504 38.1813 47.0114 38.1813 47.0114Z" stroke="black" stroke-width="5" stroke-linecap="round" stroke-linejoin="round"/>
<path d="M56.1297 51.8636C58.8331 51.8636 61.0247 49.6913 61.0247 47.0115C61.0247 44.3318 58.8331 42.1594 56.1297 42.1594C53.4262 42.1594 51.2346 44.3318 51.2346 47.0115C51.2346 49.6913 53.4262 51.8636 56.1297 51.8636Z" stroke="black" stroke-width="4" stroke-linecap="round" stroke-linejoin="round"/>
</g>
</g>
<defs>
<filter id="filter0_d" x="-4" y="0" width="122" height="121" filterUnits="userSpaceOnUse" color-interpolation-filters="sRGB">
<feFlood flood-opacity="0" result="BackgroundImageFix"/>
<feColorMatrix in="SourceAlpha" type="matrix" values="0 0 0 0 0 0 0 0 0 0 0 0 0 0 0 0 0 0 127 0" result="hardAlpha"/>
<feOffset dy="4"/>
<feGaussianBlur stdDeviation="2"/>
<feComposite in2="hardAlpha" operator="out"/>
<feColorMatrix type="matrix" values="0 0 0 0 0 0 0 0 0 0 0 0 0 0 0 0 0 0 0.25 0"/>
<feBlend mode="normal" in2="BackgroundImageFix" result="effect1_dropShadow"/>
<feBlend mode="normal" in="SourceGraphic" in2="effect1_dropShadow" result="shape"/>
</filter>
<clipPath id="clip0">
<rect width="39.1603" height="38.8168" fill="white" transform="translate(36.5496 27.603)"/>
</clipPath>
</defs>
</svg>
