<svg width="71" height="75" viewBox="0 0 71 75" fill="none" xmlns="http://www.w3.org/2000/svg">
<path d="M3 46.7687V54.3638V62.2164L19.0558 72M19.0558 72L35.6295 63.5037M19.0558 72V42.3918M35.6295 63.5037L51.1673 72M35.6295 63.5037V51.9179L19.0558 42.3918M51.1673 72L68 63.5037V51.9179L51.5369 42.3918M51.1673 72L51.5369 42.3918M19.0558 23.597V3M19.0558 23.597V42.3918M19.0558 23.597L35.2964 32.9944M19.0558 3L3 12.0112V32.8657L19.0558 42.3918M19.0558 3L35.6295 12.0112M51.5369 42.3918V22.6959M51.5369 42.3918L35.2964 32.9944M51.5369 3L68 12.0112V32.8657L51.5369 22.6959M51.5369 3V22.6959M51.5369 3L35.6295 12.0112M35.6295 12.0112L35.2964 32.9944" stroke="#ACFFC3" stroke-width="5"/>
</svg>
