<svg width="418" height="114" viewBox="0 0 418 114" fill="none" xmlns="http://www.w3.org/2000/svg">
<g filter="url(#filter0_d)">
<path d="M79.4832 84.3402C80.2242 83.521 80.1609 82.2563 79.3417 81.5153L65.9935 69.4395C65.1743 68.6985 63.9096 68.7618 63.1686 69.5809C62.4275 70.4 62.4908 71.6648 63.31 72.4058L75.1751 83.1398L64.4411 95.0049C63.7001 95.8241 63.7634 97.0888 64.5825 97.8298C65.4016 98.5709 66.6664 98.5076 67.4074 97.6884L79.4832 84.3402ZM27.519 70.7051L29.2572 69.7159L27.519 70.7051ZM78 25.5002L77.5634 23.5484C77.4469 23.5745 77.333 23.6109 77.2231 23.6573L78 25.5002ZM147.5 17L147.5 15L147.5 17ZM388.636 47.7579L387.879 49.6091L388.636 47.7579ZM393.583 66.3464L392.634 64.5854L393.583 66.3464ZM335.431 82.0649C334.748 82.933 334.899 84.1904 335.767 84.8733L349.914 96.0026C350.782 96.6856 352.039 96.5354 352.722 95.6673C353.405 94.7992 353.255 93.5418 352.387 92.8588L339.812 82.9661L349.704 70.391C350.387 69.5228 350.237 68.2654 349.369 67.5825C348.501 66.8995 347.244 67.0497 346.561 67.9178L335.431 82.0649ZM77.9 81.0009C70.3596 81.3783 64.076 82.0092 58.8397 82.4309C53.552 82.8567 49.3862 83.0634 45.8524 82.6632C42.3801 82.2699 39.5824 81.2955 37.0193 79.3762C34.4192 77.4292 31.93 74.4123 29.2572 69.7159L25.7808 71.6944C28.5985 76.6454 31.4147 80.1766 34.6217 82.5781C37.8658 85.0073 41.3771 86.1819 45.4023 86.6377C49.3662 87.0867 53.8867 86.8427 59.1609 86.418C64.4864 85.9891 70.6403 85.3693 78.1 84.9959L77.9 81.0009ZM29.2572 69.7159C27.143 66.001 28.2705 61.7079 32.3204 56.7702C36.3331 51.878 42.7696 46.967 49.7141 42.5553C56.625 38.1649 63.8927 34.3595 69.4459 31.6472C72.2193 30.2926 74.5578 29.2141 76.2008 28.4752C77.0222 28.1058 77.6693 27.8215 78.1096 27.6301C78.3298 27.5345 78.4982 27.462 78.6107 27.4139C78.6671 27.3898 78.7094 27.3718 78.7372 27.3599C78.7512 27.354 78.7615 27.3496 78.7681 27.3468C78.7714 27.3454 78.7738 27.3444 78.7753 27.3438C78.776 27.3435 78.7764 27.3433 78.7768 27.3432C78.777 27.3431 78.7769 27.3431 78 25.5002C77.2231 23.6573 77.2226 23.6575 77.2218 23.6578C77.2212 23.658 77.2202 23.6585 77.2191 23.6589C77.2168 23.6599 77.2136 23.6613 77.2095 23.663C77.2013 23.6665 77.1893 23.6715 77.1737 23.6782C77.1426 23.6914 77.097 23.7108 77.0373 23.7363C76.918 23.7874 76.7426 23.8628 76.5152 23.9616C76.0606 24.1592 75.398 24.4504 74.5602 24.8272C72.8849 25.5806 70.5075 26.6771 67.6904 28.053C62.0626 30.8018 54.6512 34.6799 47.5692 39.1789C40.5208 43.6566 33.6507 48.8409 29.2277 54.2335C24.8419 59.5806 22.4045 65.7619 25.7808 71.6944L29.2572 69.7159ZM78 25.5002C78.4366 27.452 78.4366 27.452 78.4367 27.4519C78.4369 27.4519 78.4372 27.4518 78.4377 27.4517C78.4386 27.4515 78.4401 27.4512 78.4422 27.4507C78.4463 27.4498 78.4528 27.4483 78.4615 27.4464C78.479 27.4425 78.5056 27.4366 78.5411 27.4288C78.6121 27.4131 78.7188 27.3897 78.8598 27.359C79.142 27.2975 79.5615 27.2071 80.1076 27.0918C81.1998 26.8611 82.798 26.531 84.8154 26.1345C88.8507 25.3414 94.5602 24.2834 101.25 23.2255C114.647 21.1068 131.903 18.9999 147.5 19L147.5 15C131.597 14.9999 114.103 17.1431 100.625 19.2746C93.8773 20.3417 88.1181 21.4088 84.044 22.2096C82.0067 22.61 80.39 22.9439 79.2811 23.1781C78.7266 23.2952 78.2989 23.3874 78.0091 23.4505C77.8641 23.482 77.7536 23.5063 77.6789 23.5228C77.6415 23.5311 77.6131 23.5374 77.5938 23.5417C77.5841 23.5438 77.5768 23.5454 77.5717 23.5466C77.5692 23.5471 77.5672 23.5476 77.5658 23.5479C77.5651 23.548 77.5645 23.5482 77.5642 23.5483C77.5637 23.5484 77.5634 23.5484 78 25.5002ZM147.5 19C155.319 19 159.222 19.7196 161.416 20.6296C163.468 21.4805 164.062 22.466 165.414 24.0037C166.105 24.7891 166.95 25.6422 168.198 26.4369C169.437 27.2252 170.996 27.9072 173.09 28.4653C177.231 29.5695 183.635 30.2314 194.166 30.164L194.141 26.1641C183.708 26.2308 177.735 25.5642 174.12 24.6003C172.335 24.1244 171.171 23.5874 170.346 23.0622C169.53 22.5433 168.969 21.9884 168.418 21.3616C167.286 20.0747 166.046 18.219 162.949 16.9347C159.994 15.7096 155.431 15 147.5 15L147.5 19ZM194.166 30.164C236.036 29.8964 277.374 31.6464 312.235 35.1585L312.636 31.1786C277.61 27.6498 236.127 25.8957 194.141 26.1641L194.166 30.164ZM312.235 35.1585C347.163 38.6774 373.588 43.7662 387.879 49.6091L389.393 45.9066C374.524 39.8273 347.594 34.7007 312.636 31.1786L312.235 35.1585ZM387.879 49.6091C391.437 51.0639 394.105 52.5107 395.949 53.9099C397.818 55.3279 398.652 56.552 398.906 57.507C399.129 58.3442 398.989 59.2883 398.072 60.4758C397.109 61.723 395.362 63.1167 392.634 64.5854L394.531 68.1073C397.486 66.5162 399.785 64.8016 401.238 62.9212C402.736 60.9811 403.384 58.7782 402.772 56.4784C402.191 54.2964 400.568 52.3933 398.367 50.7233C396.141 49.0345 393.125 47.4324 389.393 45.9066L387.879 49.6091ZM392.634 64.5854C386.947 67.6477 381.171 70.8302 372.736 73.7534C364.296 76.6783 353.138 79.3609 336.766 81.3156L337.24 85.2873C353.828 83.3069 365.277 80.5718 374.046 77.5328C382.819 74.4921 388.853 71.1646 394.531 68.1073L392.634 64.5854Z" fill="#EE57A6"/>
</g>
<g filter="url(#filter1_d)">
<path d="M44.7022 91.9269C48.1113 91.9269 50.5332 90.1229 50.5261 87.5945C50.5332 85.8047 49.3613 84.5263 47.117 84.2635V84.1499C48.8002 83.9084 49.9934 82.7792 49.9863 81.1456C49.9934 78.7735 47.8485 76.9837 44.7306 76.9837C41.5914 76.9837 39.3045 78.8019 39.2761 81.3871H42.6355C42.6639 80.3928 43.5588 79.7252 44.7306 79.7252C45.8457 79.7252 46.6056 80.3999 46.5985 81.3729C46.6056 82.3814 45.7108 83.0775 44.4181 83.0775H43.0048V85.5775H44.4181C45.8883 85.5775 46.8471 86.3019 46.8329 87.3246C46.8471 88.3544 45.9664 89.0718 44.7164 89.0718C43.4735 89.0718 42.5573 88.4113 42.5218 87.4525H38.9849C39.0133 90.0803 41.3784 91.9269 44.7022 91.9269ZM58.4904 91.9269C61.8284 91.934 64.1296 89.8388 64.1225 86.7919C64.1296 84.1002 62.2901 82.14 59.6836 82.14C58.0571 82.14 56.5941 82.9283 55.9904 84.2351H55.898C55.9123 81.6428 56.7787 79.9809 58.5614 79.9809C59.5273 79.9809 60.2944 80.4638 60.5003 81.3871H63.9591C63.6892 78.9439 61.6154 76.9837 58.5614 76.9837C54.854 76.9837 52.4463 79.9027 52.4321 84.7039C52.425 90.0093 55.2944 91.9198 58.4904 91.9269ZM58.4691 89.228C57.1836 89.228 56.2319 88.2195 56.2248 86.9127C56.239 85.5988 57.1978 84.5902 58.4762 84.5902C59.7759 84.5902 60.7205 85.5846 60.7134 86.9056C60.7205 88.2337 59.7688 89.228 58.4691 89.228ZM72.2821 92.0831C76.0889 92.0902 78.4255 89.2777 78.4326 84.4766C78.4397 79.7039 76.0889 76.9837 72.2821 76.9837C68.4753 76.9837 66.1457 79.6968 66.1386 84.4766C66.1244 89.2635 68.4753 92.0831 72.2821 92.0831ZM72.2821 89.2067C70.7693 89.2067 69.7395 87.6868 69.7537 84.4766C69.7608 81.3303 70.7764 79.8388 72.2821 79.8388C73.7949 79.8388 74.8105 81.3303 74.8176 84.4766C74.8247 87.6868 73.802 89.2067 72.2821 89.2067ZM80.9725 81.5292C80.9725 83.5462 82.322 84.988 84.5166 84.988C86.6828 84.988 88.0038 83.5462 88.0038 81.5292V80.7834C88.0038 78.7451 86.6615 77.2962 84.4882 77.2962C82.3504 77.2962 80.9725 78.7451 80.9725 80.7834V81.5292ZM82.7481 80.7834C82.7481 79.6471 83.3376 78.7451 84.4882 78.7451C85.6742 78.7451 86.2353 79.6471 86.2353 80.7834V81.5292C86.2353 82.6939 85.6742 83.5462 84.5166 83.5462C83.3376 83.5462 82.7481 82.6939 82.7481 81.5292V80.7834Z" fill="white"/>
</g>
<defs>
<filter id="filter0_d" x="9.19849" y="0" width="408.802" height="113.347" filterUnits="userSpaceOnUse" color-interpolation-filters="sRGB">
<feFlood flood-opacity="0" result="BackgroundImageFix"/>
<feColorMatrix in="SourceAlpha" type="matrix" values="0 0 0 0 0 0 0 0 0 0 0 0 0 0 0 0 0 0 127 0" result="hardAlpha"/>
<feOffset/>
<feGaussianBlur stdDeviation="7.5"/>
<feColorMatrix type="matrix" values="0 0 0 0 0.933333 0 0 0 0 0.341176 0 0 0 0 0.65098 0 0 0 1 0"/>
<feBlend mode="normal" in2="BackgroundImageFix" result="effect1_dropShadow"/>
<feBlend mode="normal" in="SourceGraphic" in2="effect1_dropShadow" result="shape"/>
</filter>
<filter id="filter1_d" x="28.9849" y="70.9836" width="69.019" height="35.0996" filterUnits="userSpaceOnUse" color-interpolation-filters="sRGB">
<feFlood flood-opacity="0" result="BackgroundImageFix"/>
<feColorMatrix in="SourceAlpha" type="matrix" values="0 0 0 0 0 0 0 0 0 0 0 0 0 0 0 0 0 0 127 0" result="hardAlpha"/>
<feOffset dy="4"/>
<feGaussianBlur stdDeviation="5"/>
<feComposite in2="hardAlpha" operator="out"/>
<feColorMatrix type="matrix" values="0 0 0 0 0 0 0 0 0 0 0 0 0 0 0 0 0 0 0.5 0"/>
<feBlend mode="normal" in2="BackgroundImageFix" result="effect1_dropShadow"/>
<feBlend mode="normal" in="SourceGraphic" in2="effect1_dropShadow" result="shape"/>
</filter>
</defs>
</svg>
